<svg width="262" height="365" viewBox="0 0 262 365" fill="none" xmlns="http://www.w3.org/2000/svg">
<g opacity="0.6">
<rect x="230.782" y="10.2832" width="30.5579" height="29.717" fill="#74BF90" fill-opacity="0.3"/>
<rect x="226" y="5" width="28.5579" height="27.717" stroke="#74BF90" stroke-width="2"/>
</g>
<g opacity="0.6">
<path d="M26.9484 323.44L44.8243 354.402H9.07248L26.9484 323.44Z" fill="#74BF90" fill-opacity="0.3"/>
<path d="M4.49746 349.962L20.6413 322L36.7852 349.962H4.49746Z" stroke="#74BF90" stroke-width="2"/>
</g>
<g opacity="0.6">
<ellipse cx="245.081" cy="339.5" rx="15.9189" ry="15.5" fill="#74BF90" fill-opacity="0.3"/>
<path d="M254.338 335.5C254.338 343.772 247.447 350.5 238.919 350.5C230.391 350.5 223.5 343.772 223.5 335.5C223.5 327.228 230.391 320.5 238.919 320.5C247.447 320.5 254.338 327.228 254.338 335.5Z" stroke="#74BF90"/>
</g>
<g opacity="0.6">
<path d="M20.4878 2.84142L24.2525 14.4281L24.4497 15.0348H25.0876H37.2705L27.4143 22.1957L26.8982 22.5707L27.0954 23.1774L30.8601 34.764L21.0039 27.6031L20.4878 27.2281L19.9717 27.6031L10.1155 34.764L13.8802 23.1774L14.0774 22.5707L13.5613 22.1957L3.7051 15.0348H15.888H16.5259L16.7231 14.4281L20.4878 2.84142Z" stroke="#74BF90" stroke-width="1.7561"/>
<path d="M27.5122 5.85352L32.112 20.0102H46.9973L34.9548 28.7596L39.5546 42.9163L27.5122 34.167L15.4698 42.9163L20.0696 28.7596L8.02716 20.0102H22.9124L27.5122 5.85352Z" fill="#74BF90" fill-opacity="0.3"/>
</g>
</svg>
