<svg version="1.1" id="Layer_1" xmlns="http://www.w3.org/2000/svg" xmlns:xlink="http://www.w3.org/1999/xlink" x="0px" y="0px"
	 width="250px" viewBox="0 0 784 400" enable-background="new 0 0 784 400" xml:space="preserve" fill="#2F221A">
<path fill="#2F221A" opacity="1.000000" stroke="none" 
	d="
M383.821594,242.851837 
	C374.994507,250.595749 373.774292,250.672974 364.700775,244.336823 
	C364.020630,243.861847 363.299042,243.441513 362.574310,243.035812 
	C355.669464,239.170609 351.271851,234.091766 352.696899,225.371094 
	C353.332642,221.480515 352.812469,217.399673 352.802521,213.405212 
	C352.782990,205.560349 349.827820,203.561951 342.847382,206.617813 
	C342.132751,206.930649 341.298248,206.969696 340.561920,207.126724 
	C338.890472,204.917679 340.427246,203.416153 341.427155,202.081482 
	C345.250305,196.978409 350.024017,192.790588 355.195557,189.150070 
	C359.506226,186.115570 368.173615,191.839493 368.244904,197.656631 
	C368.322388,203.979645 368.395782,210.311752 368.138794,216.626373 
	C367.987030,220.355713 369.201935,223.014389 372.300323,225.034637 
	C374.385406,226.394241 376.262726,228.068130 378.280701,229.535797 
	C384.231140,233.863510 385.406342,233.549301 387.795685,226.352798 
	C390.540283,218.086136 388.044098,210.716293 383.600739,203.660614 
	C377.871735,194.563492 378.581207,192.199768 387.388702,185.568466 
	C391.146576,182.739090 393.849457,182.920883 396.526123,186.759079 
	C403.472565,196.719849 406.799255,206.795715 401.041046,218.899445 
	C396.736206,227.948318 391.479492,235.949249 383.821594,242.851837 
z"/>
<path fill="url(#gradient-5)" opacity="1.000000" stroke="none" 
	d="
M246.394623,229.553101 
	C241.050262,220.356033 235.899857,211.470016 230.191788,201.621826 
	C248.273117,201.621826 265.212250,201.621826 283.574127,201.621826 
	C274.555115,217.215408 266.080627,231.867493 256.898865,247.742462 
	C252.989655,240.963760 249.789139,235.413940 246.394623,229.553101 
z"/>
<linearGradient id="gradient-5">
    <stop offset="0%" stop-color="rgb(138,93,71)" />
    <stop offset="100%" stop-color="rgb(181,147,117)" />
</linearGradient>
<path fill="url(#gradient-6)" opacity="1.000000" stroke="none" 
	d="
M206.958252,256.018158 
	C213.633560,244.532211 220.125122,233.362808 227.395569,220.853256 
	C236.491394,236.636795 244.886124,251.203766 253.843185,266.746521 
	C235.782196,266.746521 218.887772,266.746521 201.680695,266.746521 
	C202.428970,262.586121 205.224289,259.752869 206.958252,256.018158 
z"/>
<linearGradient id="gradient-6">
    <stop offset="0%" stop-color="rgb(141,96,73)" />
    <stop offset="100%" stop-color="rgb(186,155,124)" />
</linearGradient>
<path fill="url(#gradient-7)" opacity="1.000000" stroke="none" 
	d="
M271.159821,247.226715 
	C275.982849,239.048233 280.609436,231.178299 285.279236,223.334091 
	C285.492218,222.976334 286.094757,222.850479 287.198273,222.237625 
	C295.603729,236.848679 303.976074,251.402100 312.863831,266.851501 
	C294.843201,266.851501 278.055328,266.851501 260.125366,266.851501 
	C263.939636,260.060364 267.455627,253.800278 271.159821,247.226715 
z"/>
<linearGradient id="gradient-7">
    <stop offset="0%" stop-color="rgb(193,164,132)" />
    <stop offset="100%" stop-color="rgb(202,176,141)" />
</linearGradient>
<path fill="#00000" opacity="1.000000" stroke="none" 
	d="
M591.371033,214.853546 
	C592.912659,219.920441 590.578125,223.731628 588.319580,227.358337 
	C583.613037,234.916000 577.389099,241.150681 570.265747,246.445419 
	C568.233704,247.955826 566.126160,250.148483 563.126343,248.267365 
	C560.054199,246.340851 557.630615,244.072372 557.678162,239.991425 
	C557.798340,229.686188 557.809631,219.379395 557.817688,209.073212 
	C557.823364,201.821060 557.183228,201.104065 550.379822,200.260925 
	C551.043579,193.888260 559.655945,187.331085 564.485962,189.448822 
	C567.707153,190.861191 569.381042,192.984879 569.378113,196.713043 
	C569.374939,200.778244 568.587769,204.950455 570.245422,209.628296 
	C575.182739,207.399734 579.538330,202.698059 585.392578,206.170425 
	C588.594849,208.069824 590.382935,210.949722 591.371033,214.853546 
M569.182861,227.364182 
	C569.171021,228.690201 569.131042,230.016678 569.153442,231.342117 
	C569.195496,233.825134 570.676819,235.437576 572.777649,236.246796 
	C575.152710,237.161652 576.422302,235.151993 577.635315,233.649460 
	C581.463989,228.906815 580.503601,221.378235 575.726135,217.571609 
	C574.318176,216.449753 572.785828,215.869064 571.119995,216.631653 
	C569.557922,217.346741 569.370544,218.934402 569.333130,220.467560 
	C569.284546,222.460068 569.274475,224.453522 569.182861,227.364182 
z"/>
<path fill="#2F221A" opacity="1.000000" stroke="none" 
	d="
M433.171021,205.867065 
	C437.464813,207.250900 441.442078,208.228500 445.621735,207.964462 
	C444.977417,218.827240 439.717682,230.165207 451.049744,238.579880 
	C450.090088,241.616943 447.956543,243.720825 445.879303,245.853760 
	C442.733398,249.083939 439.519226,250.120270 436.344299,245.917023 
	C434.342072,243.266357 432.193451,243.089905 429.533539,245.014191 
	C428.072388,246.071228 426.286346,246.666641 424.710205,247.579636 
	C420.447266,250.049011 416.398773,249.736938 412.730713,246.513351 
	C408.985077,243.221603 406.856781,238.966599 408.227875,234.042435 
	C411.904938,220.836838 419.597015,210.925262 433.171021,205.867065 
M432.693207,225.775009 
	C432.663666,224.614380 432.826447,223.408920 432.568237,222.301605 
	C431.824097,219.110336 424.589752,216.451630 422.409729,218.489349 
	C418.061157,222.554077 419.631866,233.835709 424.919556,236.516327 
	C430.027618,239.105881 432.838165,237.376007 432.795593,231.657074 
	C432.783234,229.998123 432.728699,228.339493 432.693207,225.775009 
z"/>
<path fill="#2F221A" opacity="1.000000" stroke="none" 
	d="
M519.318787,210.192932 
	C523.995728,207.196060 528.284607,204.338547 533.826050,207.488953 
	C535.963257,208.703964 538.787476,207.090698 540.921387,208.330658 
	C539.619507,218.982819 535.086243,229.987320 546.309937,238.379944 
	C545.590698,241.639938 543.074768,243.645767 540.928711,245.897934 
	C537.925415,249.049637 534.832336,249.998215 531.824280,245.956284 
	C529.676819,243.070709 527.537903,243.143799 524.627075,245.064865 
	C519.358521,248.541946 513.826294,251.516876 507.759155,246.463974 
	C503.151764,242.626801 502.271851,235.669144 505.340271,227.994247 
	C508.213623,220.807266 513.522888,215.541687 519.318787,210.192932 
M518.957031,235.575867 
	C521.189514,237.131210 523.595642,238.568878 526.261292,236.984283 
	C528.942139,235.390656 527.739685,232.551529 527.807251,230.176819 
	C527.854187,228.526047 527.774170,226.871567 527.747070,225.218796 
	C527.677795,220.997116 524.616882,217.289307 520.257568,217.313385 
	C516.162415,217.335999 515.848877,221.230606 515.395752,224.194611 
	C514.790100,228.155960 514.732422,232.192444 518.957031,235.575867 
z"/>
<path fill="#2F221A" opacity="1.000000" stroke="none" 
	d="
M617.749023,218.030121 
	C614.759583,219.402283 612.129700,218.628815 609.589111,217.940277 
	C606.010559,216.970428 606.134338,219.012115 606.201660,221.234497 
	C613.430298,223.680115 620.049805,222.270935 626.840210,219.561127 
	C624.017517,226.710266 617.573059,229.690735 611.652283,233.224762 
	C614.854797,236.625366 614.854797,236.625366 630.644653,233.828781 
	C631.597412,234.954102 631.204712,236.125580 630.389526,236.966278 
	C623.553406,244.016296 614.478088,251.757095 602.879089,245.702194 
	C597.561218,242.926224 594.565063,238.317459 594.889038,231.495346 
	C595.358887,221.601273 603.947083,209.771820 613.124268,206.449127 
	C613.864990,206.180939 614.951172,205.857773 615.484558,206.189941 
	C618.943665,208.344009 622.952148,207.352432 627.272766,208.298721 
	C625.291931,212.869858 621.727661,215.405365 617.749023,218.030121 
z"/>
<path fill="#2F221A" opacity="1.000000" stroke="none" 
	d="
M475.596130,237.265137 
	C476.830139,241.911057 471.230652,250.038681 466.974670,249.710953 
	C462.867828,249.394699 461.979126,245.824783 461.776642,242.377975 
	C461.416473,236.246536 461.634857,230.097870 461.419769,223.953140 
	C461.247894,219.043213 460.064850,215.905884 453.838135,215.530182 
	C456.559479,209.804993 460.342133,205.838608 465.520996,204.134781 
	C469.971497,202.670563 471.977417,206.984207 474.034912,210.118484 
	C475.979736,210.031937 477.051727,208.577682 478.261261,207.567184 
	C481.781586,204.626068 484.988525,202.454254 489.439056,206.418259 
	C491.930420,208.637283 495.369537,207.469482 498.491547,206.096573 
	C497.470917,216.384232 485.071381,221.913040 475.606018,217.014938 
	C472.549500,220.446182 472.425537,232.166611 475.596130,237.265137 
z"/>
<path fill="#2F221A" opacity="1.000000" stroke="none" 
	d="
M658.041748,234.626007 
	C660.047485,236.412659 658.899597,237.834793 657.803711,239.060181 
	C655.813965,241.285156 653.742493,243.450333 651.561096,245.486191 
	C649.909546,247.027542 648.251526,249.279190 645.598938,248.138062 
	C642.663635,246.875290 640.855225,244.414154 640.820496,241.109085 
	C640.745422,233.958618 640.829163,226.806534 640.838745,219.655121 
	C640.846313,214.029495 640.840271,208.403824 640.840271,203.451202 
	C639.239319,201.109100 637.056580,203.001236 635.872559,201.472504 
	C636.344604,197.166748 644.295044,188.495453 648.060791,188.600800 
	C652.015259,188.711441 653.350525,191.436005 653.342529,195.060867 
	C653.317566,206.371140 653.327942,217.681519 653.285828,228.991714 
	C653.274353,232.076981 653.533936,234.836624 658.041748,234.626007 
z"/>
<path fill="url(#gradient-2)" opacity="1.000000" stroke="none" 
	d="
M236.814911,174.855194 
	C238.762375,171.807037 239.660172,168.478195 242.742004,165.925613 
	C247.475128,172.864120 251.276260,179.890610 255.260849,187.905640 
	C246.500610,188.603973 238.578003,188.325623 230.113708,188.137360 
	C231.506714,182.817886 234.598602,179.252319 236.814911,174.855194 
z"/>
<linearGradient id="gradient-2">
    <stop offset="0%" stop-color="rgb(132,85,63)" />
    <stop offset="100%" stop-color="rgb(149,108,83)" />
</linearGradient>
<path fill="url(#gradient-1)" opacity="1.000000" stroke="none" 
	d="
M217.621307,171.489609 
	C220.550415,176.866547 223.977310,181.582611 226.218719,187.821548 
	C217.820114,188.707794 209.879990,188.350662 201.059753,188.068253 
	C204.667725,180.050964 208.833603,173.234238 212.992355,166.437912 
	C215.905304,167.084198 216.190598,169.559021 217.621307,171.489609 
z"/>
<linearGradient id="gradient-1">
    <stop offset="100%" stop-color="rgb(138,93,71)" />
    <stop offset="0%" stop-color="rgb(124,75,55)" />
</linearGradient>
<path fill="url(#gradient-3)" opacity="1.000000" stroke="none" 
	d="
M277.716797,188.306366 
	C271.342529,188.306717 265.427856,188.306717 258.438232,188.306717 
	C262.160461,179.851929 266.597656,173.204773 271.284119,165.008530 
	C275.901337,173.041122 279.863251,179.933685 283.745270,186.687286 
	C281.837830,188.943115 279.877991,188.043579 277.716797,188.306366 
z"/>
<linearGradient id="gradient-3">
    <stop offset="0%" stop-color="rgb(157,118,92)" />
    <stop offset="100%" stop-color="rgb(178,145,117)" />
</linearGradient>
<path fill="url(#gradient-4)" opacity="1.000000" stroke="none" 
	d="
M292.699158,177.761551 
	C295.101501,173.806549 296.698700,169.769073 300.256317,165.850586 
	C304.869843,172.914413 308.744934,179.810944 312.538910,187.779099 
	C303.867645,188.588348 296.103668,188.514236 287.938507,187.893143 
	C288.572845,183.753372 291.025879,181.134720 292.699158,177.761551 
z"/>
<linearGradient id="gradient-4">
    <stop offset="0%" stop-color="rgb(182,150,119)" />
    <stop offset="100%" stop-color="rgb(199,172,138)" />
</linearGradient>
</svg>