<?xml version="1.0" standalone="no"?>
<!DOCTYPE svg PUBLIC "-//W3C//DTD SVG 20010904//EN"
 "http://www.w3.org/TR/2001/REC-SVG-20010904/DTD/svg10.dtd">
<svg version="1.0" xmlns="http://www.w3.org/2000/svg"
 width="30.000000pt" height="30.000000pt" viewBox="0 0 30.000000 30.000000"
 preserveAspectRatio="xMidYMid meet">

<g transform="translate(0.000000,30.000000) scale(0.100000,-0.100000)"
fill="#f65151" stroke="none">
<path d="M78 231 c-29 -26 -33 -35 -33 -81 0 -46 4 -55 33 -81 71 -64 182 -18
182 75 0 25 -3 26 -55 26 -48 0 -55 -2 -55 -20 0 -16 7 -20 31 -20 36 0 35
-18 -3 -40 -52 -28 -100 21 -84 85 8 32 51 51 82 36 17 -7 26 -6 35 6 11 13
10 17 -6 29 -33 24 -91 18 -127 -15z"/>
</g>
</svg>
