<svg width="22" height="22" viewBox="0 0 22 22" fill="none" xmlns="http://www.w3.org/2000/svg">
<path d="M20.8422 12.4749H17.9473V10.159H20.8422C21.2558 10.159 21.6379 9.93848 21.8448 9.58012C22.0517 9.22175 22.0517 8.78049 21.8448 8.42214C21.6379 8.06402 21.2558 7.84328 20.8422 7.84328H17.9473V2.05391C17.9473 1.64005 17.7266 1.25794 17.3685 1.05101C17.0101 0.844325 16.5689 0.844325 16.2105 1.05101C15.8521 1.25793 15.6316 1.64005 15.6316 2.05391V7.84328H10.8032L8.48754 2.3202H8.4873C8.20162 1.67131 7.63414 1.18915 6.94772 1.0115C6.26129 0.834127 5.53145 0.980724 4.96685 1.40985C4.40228 1.83873 4.0655 2.50287 4.05266 3.21163V7.84328H1.15785C0.74423 7.84328 0.362126 8.06401 0.155194 8.42214C-0.0517314 8.7805 -0.0517314 9.22177 0.155194 9.58011C0.36212 9.93848 0.744236 10.159 1.15785 10.159H4.05266V12.4747L1.15785 12.4749C0.74423 12.4749 0.362126 12.6954 0.155194 13.0538C-0.0517314 13.4121 -0.0517314 13.8534 0.155194 14.2118C0.36212 14.5699 0.744236 14.7906 1.15785 14.7906H4.05266V20.58C4.05266 20.9938 4.2734 21.376 4.63152 21.5829C4.98988 21.7896 5.43115 21.7896 5.78949 21.5829C6.14786 21.376 6.36836 20.9938 6.36836 20.58V14.7906H11.1968L13.5125 20.3137H13.5127C13.6874 20.7326 13.9813 21.091 14.3581 21.3442C14.7349 21.5974 15.1776 21.7343 15.6316 21.7379C15.7855 21.7551 15.9408 21.7551 16.0947 21.7379C16.6256 21.6296 17.1019 21.3386 17.4404 20.9156C17.7789 20.4923 17.9582 19.964 17.9473 19.4222V14.7906H20.8421C21.2558 14.7906 21.6379 14.5699 21.8448 14.2117C22.0517 13.8534 22.0517 13.4121 21.8448 13.0538C21.6379 12.6954 21.2557 12.4749 20.8421 12.4749L20.8422 12.4749ZM15.6316 10.159V12.4747L12.7368 12.4749L11.7759 10.1592L15.6316 10.159ZM6.3681 3.21163L8.3017 7.84328H6.3681V3.21163ZM6.3681 12.4746V10.1589H9.26291L10.2239 12.4746H6.3681ZM15.631 19.4219L13.6974 14.7903L15.6313 14.7905L15.631 19.4219Z" fill="#133B5C"/>
</svg>
