<svg width="167" height="173" viewBox="0 0 167 173" fill="none" xmlns="http://www.w3.org/2000/svg">
<path d="M17.6853 75.7257C17.6853 75.7257 46.9019 74.5557 53.2157 26.5298C58.8225 -16.1219 108.089 3.29162 122.331 20.2936C140.779 42.3182 130.945 80.2051 154.81 84.9914C178.675 89.7776 163.091 142.992 126.865 137.898C81.801 131.562 92.7038 157.895 79.176 169.041C69.4673 177.04 29.6583 169.34 28.3315 140.302C27.215 115.867 16.9079 115.944 9.60209 113.174C-0.93451 109.178 -7.57373 80.2379 17.6853 75.7257Z" fill="#F0F4F7"/>
<path d="M117.005 129.062L88.301 100.698L82.6171 106.45L111.322 134.814L117.005 129.062Z" fill="#D8D8D8"/>
<path d="M127.971 136.683L105.638 114.616C105.514 114.493 105.314 114.494 105.191 114.618L96.7383 123.173C96.6154 123.297 96.6166 123.497 96.741 123.62L119.073 145.687C119.197 145.81 119.398 145.809 119.521 145.685L127.973 137.131C128.096 137.006 128.095 136.806 127.971 136.683Z" fill="#BDBDBD"/>
<path d="M62.8601 114.963C82.6079 114.963 98.6167 98.9539 98.6167 79.2061C98.6167 59.4582 82.6079 43.4495 62.8601 43.4495C43.1123 43.4495 27.1035 59.4582 27.1035 79.2061C27.1035 98.9539 43.1123 114.963 62.8601 114.963Z" fill="#BDBDBD"/>
<path d="M62.8602 109.128C79.3858 109.128 92.7824 95.7317 92.7824 79.2062C92.7824 62.6806 79.3858 49.2839 62.8602 49.2839C46.3346 49.2839 32.938 62.6806 32.938 79.2062C32.938 95.7317 46.3346 109.128 62.8602 109.128Z" fill="#F0F4F7"/>
<path d="M123.311 46.8819C114.924 44.1632 105.859 48.7612 103.13 57.183C100.411 65.5702 105.009 74.6343 113.431 77.3639C121.853 80.0935 130.893 75.4504 133.612 67.0628C136.332 58.6751 131.698 49.6004 123.311 46.8819ZM120.78 54.6899C121.719 54.9942 122.546 55.5705 123.157 56.3457C123.768 57.1208 124.135 58.0599 124.211 59.0439C124.287 60.0278 124.07 61.0122 123.586 61.8723C123.102 62.7324 122.373 63.4294 121.493 63.8749C120.612 64.3204 119.619 64.4943 118.639 64.3746C117.66 64.2549 116.738 63.847 115.99 63.2025C115.243 62.5581 114.704 61.7062 114.441 60.7548C114.179 59.8035 114.204 58.7956 114.516 57.859C115.355 55.2678 118.188 53.85 120.78 54.6899ZM114.448 74.2271C111.661 73.3285 109.274 71.4891 107.694 69.0239C110.65 67.3444 113.74 66.8767 116.536 67.7829C119.332 68.6891 121.606 70.8577 122.969 73.9748C120.244 75.0448 117.232 75.134 114.448 74.2271Z" fill="#BDBDBD"/>
<path d="M53.5011 123.311C52.0443 124.055 50.8407 125.214 50.0425 126.642C49.2443 128.069 48.8874 129.702 49.0169 131.332C49.1464 132.963 49.7566 134.518 50.7701 135.802C51.7836 137.086 53.1551 138.04 54.7111 138.544C56.267 139.049 57.9376 139.08 59.5115 138.635C61.0854 138.19 62.492 137.288 63.5533 136.044C64.6147 134.799 65.2831 133.268 65.4742 131.643C65.6653 130.019 65.3703 128.374 64.6267 126.917C63.6278 124.965 61.8954 123.49 59.8096 122.814C57.7238 122.138 55.4551 122.317 53.5011 123.311ZM55.4273 127.085C55.8811 126.853 56.3934 126.762 56.8993 126.822C57.4052 126.881 57.8819 127.09 58.2689 127.422C58.6559 127.753 58.9358 128.192 59.0731 128.682C59.2104 129.173 59.1989 129.693 59.0401 130.177C58.8812 130.661 58.5822 131.087 58.1809 131.401C57.7796 131.715 57.2941 131.902 56.7861 131.94C56.278 131.978 55.7703 131.863 55.3272 131.612C54.8842 131.36 54.5258 130.983 54.2975 130.528C53.995 129.92 53.944 129.219 54.1554 128.574C54.3669 127.93 54.8239 127.394 55.4273 127.085V127.085ZM60.2469 136.527C58.9019 137.216 57.3591 137.416 55.8829 137.093C56.3487 135.401 57.306 134.102 58.6575 133.413C60.0091 132.723 61.6301 132.685 63.2654 133.325C62.6611 134.71 61.594 135.842 60.2469 136.527V136.527Z" fill="#BDBDBD"/>
</svg>
