<svg width="54" height="46" viewBox="0 0 54 46" fill="none" xmlns="http://www.w3.org/2000/svg">
<rect width="54" height="46" rx="5" fill="#F9F7E3"/>
<path d="M24.1601 21.87C24.0601 21.86 23.9401 21.86 23.8301 21.87C21.4501 21.79 19.5601 19.84 19.5601 17.44C19.5601 14.99 21.5401 13 24.0001 13C26.4501 13 28.4401 14.99 28.4401 17.44C28.4301 19.84 26.5401 21.79 24.1601 21.87Z" fill="#D0C326"/>
<path d="M31.41 15C33.35 15 34.91 16.57 34.91 18.5C34.91 20.39 33.41 21.93 31.54 22C31.46 21.99 31.37 21.99 31.28 22" fill="#D0C326"/>
<path d="M19.16 25.56C16.74 27.18 16.74 29.82 19.16 31.43C21.91 33.27 26.42 33.27 29.17 31.43C31.59 29.81 31.59 27.17 29.17 25.56C26.43 23.73 21.92 23.73 19.16 25.56Z" fill="#D0C326"/>
<path d="M33.3401 31C34.0601 30.85 34.7401 30.56 35.3001 30.13C36.8601 28.96 36.8601 27.03 35.3001 25.86C34.7501 25.44 34.0801 25.16 33.3701 25" fill="#D0C326"/>
</svg>
