<svg width="26" height="26" viewBox="0 0 26 26" fill="none" xmlns="http://www.w3.org/2000/svg">
<path id="myPath" d="M23.8333 9.22984V4.3115C23.8333 2.784 23.14 2.1665 21.4175 2.1665H17.0408C15.3183 2.1665 14.625 2.784 14.625 4.3115V9.219C14.625 10.7573 15.3183 11.364 17.0408 11.364H21.4175C23.14 11.3748 23.8333 10.7573 23.8333 9.22984Z" stroke="#7F8184" stroke-width="1.5" stroke-linecap="round" stroke-linejoin="round"/>
<path id="myPath" d="M23.8333 21.4175V17.0408C23.8333 15.3183 23.14 14.625 21.4175 14.625H17.0408C15.3183 14.625 14.625 15.3183 14.625 17.0408V21.4175C14.625 23.14 15.3183 23.8333 17.0408 23.8333H21.4175C23.14 23.8333 23.8333 23.14 23.8333 21.4175Z" stroke="#7F8184" stroke-width="1.5" stroke-linecap="round" stroke-linejoin="round"/>
<path id="myPath" d="M11.3751 9.22984V4.3115C11.3751 2.784 10.6817 2.1665 8.95925 2.1665H4.58258C2.86008 2.1665 2.16675 2.784 2.16675 4.3115V9.219C2.16675 10.7573 2.86008 11.364 4.58258 11.364H8.95925C10.6817 11.3748 11.3751 10.7573 11.3751 9.22984Z" stroke="#7F8184" stroke-width="1.5" stroke-linecap="round" stroke-linejoin="round"/>
<path id="myPath" d="M11.3751 21.4175V17.0408C11.3751 15.3183 10.6817 14.625 8.95925 14.625H4.58258C2.86008 14.625 2.16675 15.3183 2.16675 17.0408V21.4175C2.16675 23.14 2.86008 23.8333 4.58258 23.8333H8.95925C10.6817 23.8333 11.3751 23.14 11.3751 21.4175Z" stroke="#7F8184" stroke-width="1.5" stroke-linecap="round" stroke-linejoin="round"/>
</svg>
